<?xml version="1.0" standalone="no"?>
<!DOCTYPE svg PUBLIC "-//W3C//DTD SVG 20010904//EN"
 "http://www.w3.org/TR/2001/REC-SVG-20010904/DTD/svg10.dtd">
<svg version="1.0" xmlns="http://www.w3.org/2000/svg"
 width="1280.000000pt" height="701.000000pt" viewBox="0 0 1280.000000 701.000000"
 preserveAspectRatio="xMidYMid meet">
<metadata>
Created by potrace 1.15, written by Peter Selinger 2001-2017
</metadata>
<g transform="translate(0.000000,701.000000) scale(0.100000,-0.100000)"
fill="#000000" stroke="none">
<path d="M9903 6973 c-9 -21 -18 -64 -21 -95 -2 -32 -6 -58 -9 -58 -2 0 -38
23 -79 52 -70 49 -75 51 -100 37 -30 -16 -163 -162 -231 -253 -25 -34 -46 -74
-49 -97 l-7 -39 -123 0 c-157 0 -174 -6 -174 -61 0 -28 6 -46 18 -55 14 -10
18 -33 22 -115 4 -91 8 -105 25 -114 17 -8 19 -18 17 -58 l-3 -48 -31 7 c-29
6 -53 23 -112 81 -21 21 -24 21 -40 5 -15 -15 -18 -15 -26 -2 -18 28 -30 -11
-26 -88 2 -40 0 -75 -6 -78 -5 -3 -13 -17 -18 -30 -6 -15 -34 -36 -80 -59 -68
-34 -81 -50 -59 -72 8 -8 7 -16 -2 -31 -17 -27 9 -92 45 -110 34 -17 33 -32
-4 -64 -19 -16 -30 -36 -30 -52 0 -32 -34 -53 -56 -35 -14 11 -13 13 0 21 23
13 20 22 -13 34 -20 8 -41 33 -70 82 -47 80 -66 96 -183 152 -153 73 -531 180
-831 235 -78 14 -185 39 -237 56 -183 57 -338 76 -695 86 -164 5 -196 3 -230
-12 -22 -9 -103 -39 -179 -67 -457 -164 -802 -394 -904 -601 -17 -34 -45 -124
-63 -199 -22 -94 -36 -135 -43 -129 -6 5 -85 12 -176 15 -363 15 -544 37 -790
97 -315 76 -802 232 -970 310 -69 32 -96 40 -117 34 -15 -4 -48 -9 -73 -12
-29 -3 -65 -19 -102 -44 -32 -21 -64 -36 -72 -33 -16 6 -66 102 -66 126 0 9
-4 20 -10 23 -21 13 -9 25 24 25 29 0 36 4 45 31 6 18 11 45 11 61 0 66 -83
174 -180 236 -30 19 -59 41 -63 49 -4 7 -18 13 -31 13 -13 0 -43 7 -66 15 -23
8 -70 15 -104 15 -33 0 -95 6 -136 14 -41 8 -235 42 -430 75 -195 33 -418 72
-495 85 -77 14 -174 25 -215 25 -74 -1 -113 4 -320 42 -102 18 -311 41 -318
35 -1 -2 27 -32 64 -67 38 -35 102 -98 143 -139 185 -183 465 -384 1001 -719
69 -43 125 -84 125 -92 0 -16 -55 -46 -482 -268 l-333 -172 -31 17 c-25 12
-58 16 -150 15 -211 -3 -531 54 -621 109 -45 28 -65 34 -129 38 -92 5 -182
-17 -203 -51 -21 -33 -29 -92 -14 -105 12 -9 127 -46 272 -87 44 -12 56 -19
47 -28 -6 -6 -11 -47 -11 -99 l0 -88 32 -13 c18 -8 41 -23 51 -34 17 -19 17
-23 1 -62 -10 -25 -28 -47 -43 -56 -15 -7 -33 -20 -40 -29 -10 -11 -19 -13
-38 -5 -39 15 -59 3 -94 -57 -35 -61 -33 -68 27 -105 19 -11 34 -26 34 -32 0
-7 -18 -41 -39 -77 -29 -50 -42 -64 -59 -63 -25 3 -39 -31 -22 -52 9 -11 6
-25 -16 -65 -25 -46 -30 -50 -65 -50 -47 0 -59 -17 -28 -41 22 -16 23 -20 10
-54 -7 -20 -11 -38 -9 -41 3 -2 19 -1 36 2 27 5 39 21 99 128 87 156 142 212
238 245 39 14 141 60 227 103 165 82 173 89 222 186 67 134 129 186 215 181
31 -2 48 6 101 48 48 37 77 52 108 56 24 3 51 12 61 21 11 10 28 14 51 10 29
-5 39 -1 60 21 20 22 22 28 10 35 -8 5 -12 11 -10 13 3 2 169 55 370 116 201
62 407 127 459 144 l94 31 78 -42 c45 -24 91 -42 109 -42 19 0 56 -14 89 -34
85 -51 215 -120 436 -232 118 -60 201 -108 203 -117 3 -16 -151 -374 -169
-392 -13 -13 -116 91 -131 132 -12 33 -39 50 -58 38 -5 -3 -10 -26 -10 -51 0
-39 7 -53 58 -117 79 -97 78 -95 48 -118 -22 -18 -26 -26 -20 -54 3 -19 3 -38
0 -44 -10 -16 -102 22 -131 53 -13 14 -33 26 -44 26 -12 0 -30 15 -44 35 -13
20 -45 58 -71 85 -25 27 -46 56 -46 64 0 23 -17 20 -30 -5 -19 -34 -3 -68 72
-157 38 -46 67 -86 64 -89 -3 -4 -18 -1 -32 6 -18 8 -30 9 -37 2 -6 -6 -25 -2
-53 12 -24 11 -45 19 -47 16 -2 -2 -7 -25 -10 -50 -6 -45 -4 -50 63 -148 39
-56 70 -106 70 -112 0 -7 -9 -9 -23 -4 -164 52 -565 66 -777 27 -241 -44 -443
-116 -631 -223 -155 -88 -287 -187 -408 -304 -177 -171 -276 -307 -396 -546
-299 -596 -266 -1310 86 -1886 55 -90 164 -234 231 -304 106 -113 315 -283
428 -349 30 -17 64 -40 75 -50 29 -26 185 -94 290 -125 50 -15 104 -31 122
-36 17 -6 56 -12 85 -16 29 -3 58 -9 63 -13 50 -37 570 -50 705 -18 426 100
555 149 760 285 426 283 689 639 826 1120 16 57 33 103 38 103 5 0 46 -18 92
-41 62 -30 85 -46 88 -62 17 -96 37 -199 42 -211 7 -17 -7 -31 -124 -131 -58
-49 -81 -75 -78 -88 3 -11 -7 -26 -27 -41 -17 -14 -29 -27 -26 -30 6 -6 145
-13 429 -22 124 -4 248 -8 275 -10 28 -1 363 -1 745 -1 1213 2 1398 0 1740
-16 347 -16 1660 -18 1708 -3 12 4 22 13 22 20 0 8 -20 58 -46 112 -108 233
-189 462 -204 575 -13 100 -13 286 1 310 6 11 19 64 29 117 23 116 38 162 85
250 42 79 144 226 152 218 3 -3 -6 -47 -21 -98 -49 -175 -57 -234 -63 -464 -7
-298 5 -380 92 -619 20 -55 40 -116 44 -136 4 -20 25 -68 46 -105 21 -38 46
-82 55 -99 43 -81 195 -298 251 -359 95 -103 240 -229 337 -292 193 -126 432
-225 664 -276 94 -20 129 -22 398 -22 l295 0 160 43 c88 24 179 47 202 52 23
4 71 22 107 39 36 16 69 30 74 30 5 0 27 13 48 28 21 15 71 47 111 70 207 122
453 360 596 576 212 323 320 711 304 1091 -11 254 -61 465 -169 709 -169 385
-529 751 -910 926 -54 25 -98 47 -98 51 0 3 47 14 105 24 62 11 104 23 102 29
-10 30 -328 125 -546 163 -130 22 -187 27 -346 27 -104 1 -214 -3 -242 -7 -29
-4 -53 -4 -53 1 0 9 295 175 437 246 61 30 106 46 131 46 46 0 82 23 82 54 0
30 -16 48 -73 80 -34 19 -53 39 -63 63 -9 19 -14 37 -12 38 2 2 84 7 182 10
99 3 186 10 195 15 9 4 55 14 101 21 47 6 95 18 108 26 32 19 27 63 -9 80 -22
11 -27 21 -32 66 -12 124 -119 314 -285 508 -57 66 -102 122 -99 125 2 3 47
-34 100 -81 53 -47 98 -85 101 -85 3 0 2 17 -1 38 -14 89 -149 306 -272 438
-42 44 -112 123 -156 174 -113 133 -405 430 -567 577 -133 121 -136 125 -140
171 -3 28 1 58 9 74 18 37 16 112 -3 151 -28 54 -103 135 -167 181 -72 51
-207 120 -255 131 -30 6 -33 4 -49 -32z m-277 -659 c140 -100 165 -128 182
-211 7 -36 10 -38 145 -97 76 -34 142 -68 147 -76 5 -8 5 -21 -1 -32 -6 -10
-8 -22 -5 -27 3 -5 -33 -48 -79 -95 -79 -82 -99 -116 -75 -131 6 -3 10 -17 10
-30 0 -24 45 -69 60 -60 4 3 15 -6 24 -20 12 -19 25 -25 51 -25 28 0 35 -4 35
-20 0 -21 15 -27 25 -10 9 14 25 12 25 -3 0 -17 -42 -37 -76 -37 -14 0 -55 7
-92 15 -37 8 -100 19 -141 23 -50 5 -76 12 -81 22 -42 89 -63 161 -54 185 4 9
26 45 50 81 53 79 69 131 52 168 -23 51 -85 47 -148 -10 -37 -33 -40 -34 -40
-15 0 30 -35 97 -61 115 -18 12 -26 13 -61 0 -53 -18 -53 -18 -55 14 -3 52
-15 97 -31 115 -15 16 -14 18 6 24 28 7 35 46 24 151 -7 77 -7 82 11 82 11 0
80 -43 153 -96z m110 -471 c-42 -80 -43 -81 -55 -49 -6 15 -7 34 -3 42 8 15
75 64 80 59 2 -2 -8 -25 -22 -52z m-7690 -585 c27 -18 49 -40 49 -48 0 -10
-28 -25 -80 -43 l-80 -29 -43 23 c-51 27 -68 51 -47 69 17 14 124 59 141 60 7
0 34 -15 60 -32z m-275 -124 c30 -27 22 -41 -36 -63 -68 -26 -86 -26 -116 -3
-29 24 -21 45 28 72 43 23 95 21 124 -6z m-261 -109 c10 -12 8 -16 -15 -25
-14 -5 -32 -10 -38 -10 -7 0 -22 -7 -33 -15 -18 -12 -24 -12 -39 -1 -16 12
-14 15 26 38 51 30 82 34 99 13z m1888 -348 c8 -9 -8 -59 -57 -183 -73 -184
-115 -268 -134 -261 -26 8 -15 45 67 225 46 103 88 197 91 210 7 25 18 28 33
9z m143 -63 c17 -8 29 -19 27 -23 -3 -9 -138 -154 -138 -148 0 1 13 36 28 77
16 41 32 83 35 93 8 21 10 21 48 1z m240 -110 c19 -23 64 -44 95 -44 15 0 65
-26 125 -65 138 -92 281 -158 604 -276 154 -56 325 -121 380 -143 100 -41 100
-41 100 -76 l0 -35 -82 0 c-91 0 -118 -13 -160 -75 -58 -85 -6 -217 93 -236
41 -8 51 -19 56 -64 2 -27 8 -35 27 -40 27 -6 41 -30 18 -30 -22 0 -31 -49
-12 -69 22 -25 19 -33 -19 -63 -49 -39 -71 -35 -108 23 -21 32 -103 76 -264
140 -166 65 -302 135 -309 159 -3 10 -22 24 -41 30 -19 7 -72 44 -117 84 -112
97 -142 114 -234 132 -96 18 -136 13 -235 -33 l-77 -36 -63 30 c-35 16 -120
54 -191 83 -70 29 -126 57 -125 61 6 13 511 559 518 559 4 0 13 -7 21 -16z
m186 -757 c44 -23 226 -177 218 -185 -2 -3 -34 7 -70 22 -36 14 -72 26 -79 26
-8 0 -27 6 -43 14 -43 22 -153 72 -200 91 -50 20 -53 30 -15 43 50 19 143 13
189 -11z m-1442 -628 c84 -20 265 -88 265 -98 0 -6 -90 -18 -365 -51 -38 -5
-77 -11 -86 -15 -24 -9 -46 123 -28 167 12 30 12 30 73 23 34 -3 97 -15 141
-26z m8660 -84 c234 -57 426 -166 586 -332 90 -93 154 -182 179 -251 l22 -57
-50 -45 c-27 -25 -63 -53 -80 -63 l-30 -17 -27 47 c-49 86 -132 187 -222 269
-109 99 -189 155 -286 197 -91 40 -107 52 -107 84 0 22 -38 88 -72 125 -7 8
-24 26 -37 41 l-24 27 24 0 c13 0 69 -11 124 -25z m-8275 -160 c-35 -26 -51
-28 -58 -7 -4 14 32 30 67 31 24 1 23 0 -9 -24z m-135 -68 c0 -9 -3 -17 -7
-17 -5 0 -19 0 -33 0 -31 0 -32 13 -2 28 28 13 42 10 42 -11z m-645 3 c0 -5
-15 -11 -32 -14 -211 -33 -218 -35 -218 -83 0 -32 -21 -46 -35 -23 -9 15 -35
12 -42 -6 -3 -8 0 -26 7 -40 12 -21 11 -26 -12 -47 -15 -14 -27 -39 -32 -66
-4 -28 -16 -52 -35 -69 -16 -15 -31 -38 -34 -52 -4 -14 -24 -43 -46 -64 l-40
-39 -123 12 c-229 23 -279 31 -305 43 -48 24 -50 40 -14 113 45 91 140 231
190 280 l41 39 16 -22 c20 -30 53 -29 404 12 157 18 291 34 298 35 6 0 12 -3
12 -9z m7983 -173 l78 -44 -43 -47 -43 -47 -72 7 c-82 8 -87 14 -77 81 6 43
44 93 69 93 5 0 45 -20 88 -43z m1072 -118 c48 -17 89 -38 92 -45 12 -31 -5
-31 -56 0 -30 19 -72 40 -93 47 -21 7 -38 16 -38 21 0 11 -1 12 95 -23z m-8
-105 c18 -8 33 -18 33 -22 -1 -14 -26 -39 -46 -46 -16 -5 -24 2 -42 39 -12 25
-22 48 -22 51 0 6 28 -2 77 -22z m-1324 -86 c37 -78 41 -97 22 -104 -23 -9
-95 14 -102 32 -6 16 35 124 47 124 5 0 20 -24 33 -52z m1401 3 c3 -5 -4 -20
-15 -35 -35 -44 -54 -28 -23 19 17 26 29 31 38 16z m283 -96 c38 -69 39 -80
16 -90 -13 -5 -24 2 -38 21 -11 15 -35 47 -52 71 -38 50 -38 50 -15 56 42 12
57 2 89 -58z m-224 19 c9 -10 -15 -54 -30 -54 -16 0 -17 32 -1 48 13 13 22 15
31 6z m731 -37 c42 -31 80 -367 57 -502 -17 -97 -67 -267 -102 -344 -37 -81
-122 -209 -189 -283 -58 -65 -78 -70 -138 -38 -82 44 -82 39 -4 131 182 213
272 494 242 751 -6 57 -15 108 -20 113 -4 6 -11 31 -14 56 -6 44 -5 48 23 68
27 20 109 60 122 61 3 0 13 -6 23 -13z m-610 -19 c9 -12 16 -35 16 -50 0 -28
-1 -28 -60 -28 -59 0 -60 0 -60 28 0 41 26 72 60 72 18 0 34 -8 44 -22z
m-10119 -64 c66 -13 138 -29 160 -37 40 -14 40 -14 35 -58 -11 -94 -3 -254 14
-314 24 -83 69 -169 128 -243 l49 -63 -61 -147 c-81 -197 -98 -226 -134 -230
-24 -3 -40 9 -111 82 -78 79 -205 256 -218 301 -3 11 -19 52 -35 90 -64 155
-97 341 -89 504 5 99 15 135 39 144 19 7 87 -2 223 -29z m8530 -81 c20 -52 15
-73 -25 -101 -21 -15 -43 -37 -49 -50 -13 -27 -15 -139 -2 -146 4 -3 11 -26
14 -51 11 -78 29 -100 95 -119 32 -9 65 -16 73 -16 8 0 29 -38 52 -99 48 -122
114 -226 204 -322 l70 -74 -27 -60 c-15 -33 -37 -69 -48 -79 -21 -19 -22 -19
-62 9 -48 33 -138 128 -201 211 -157 206 -241 456 -242 724 -1 119 17 172 59
181 55 12 82 10 89 -8z m-6620 -186 l200 -73 7 -45 c14 -79 -18 -131 -82 -136
-14 -1 -88 -20 -165 -42 -77 -23 -189 -55 -249 -71 -59 -17 -117 -35 -127 -40
-26 -15 -46 -13 -27 3 9 6 18 23 20 37 2 20 9 26 36 28 29 3 32 6 32 38 0 31
4 35 31 41 29 5 30 8 24 40 -6 31 -4 34 25 40 32 6 33 9 19 62 -2 8 8 21 24
28 31 16 32 21 12 47 -21 27 -19 35 10 48 28 13 33 36 10 44 -15 6 -21 24 -7
24 4 0 97 -33 207 -73z m8279 -29 c-9 -58 -29 -88 -59 -88 -23 0 -25 4 -25 40
0 46 34 90 70 90 18 0 20 -4 14 -42z m55 -35 c-1 -64 -12 -97 -31 -101 -14 -3
-14 3 -2 50 8 29 14 63 14 75 0 13 5 23 10 23 6 0 10 -21 9 -47z m-1099 -212
c-5 -11 -10 -28 -10 -39 0 -23 -19 -33 -50 -25 -29 8 -22 33 19 60 42 28 55
29 41 4z m923 -37 c3 -4 -14 -27 -38 -53 -46 -48 -62 -51 -46 -8 18 47 64 81
84 61z m-8010 -41 c-68 -163 -213 -382 -264 -398 -10 -3 -31 1 -46 9 -32 17
-199 185 -232 234 l-22 32 40 0 c22 0 43 5 46 10 3 6 19 10 34 10 15 0 36 7
47 15 10 8 28 15 38 15 26 0 125 29 159 45 15 8 34 12 41 9 8 -3 37 4 64 16
28 12 55 19 60 16 5 -3 15 1 22 9 23 27 29 16 13 -22z m8074 -35 c-6 -22 -83
-108 -97 -108 -4 0 -13 6 -19 14 -10 12 -2 27 41 80 45 55 55 63 67 51 8 -8
11 -23 8 -37z m-1116 13 c4 -3 10 -16 14 -28 9 -32 -15 -30 -48 5 -15 15 -27
31 -27 35 0 8 51 -2 61 -12z m506 -87 c-9 -9 -28 6 -21 18 4 6 10 6 17 -1 6
-6 8 -13 4 -17z m133 0 c0 -2 -12 -4 -27 -4 -21 0 -24 3 -14 9 13 8 41 5 41
-5z m-245 -26 c32 -14 32 -33 0 -54 -23 -15 -28 -15 -71 2 l-47 18 27 23 c30
26 53 29 91 11z m354 -42 c10 -12 4 -17 -40 -30 -65 -20 -89 -20 -89 -2 0 18
13 27 54 37 48 11 63 10 75 -5z m-8394 -151 c112 -95 193 -173 206 -197 19
-36 0 -57 -94 -102 -299 -143 -631 -164 -937 -60 -47 16 -140 60 -153 73 -13
12 23 112 71 196 41 72 112 185 117 185 1 0 35 -12 76 -27 70 -26 83 -28 244
-27 l170 0 80 35 c93 41 76 47 220 -76z m7993 92 c53 -20 61 -25 48 -36 -12
-10 -22 -8 -53 8 -46 23 -82 50 -68 51 6 0 38 -11 73 -23z m470 -9 c-4 -33
-52 -52 -128 -53 -50 0 -65 3 -67 15 -3 11 18 20 79 36 113 29 120 29 116 2z
m-553 -23 c22 -14 36 -25 30 -25 -5 0 -28 11 -50 25 -22 13 -35 24 -30 24 6 0
28 -11 50 -24z m979 -317 c16 -27 16 -29 -6 -51 -64 -63 -295 -155 -457 -182
-138 -23 -378 -16 -499 14 -112 28 -230 78 -243 103 -18 33 17 178 42 178 5 0
35 -13 67 -29 31 -15 68 -32 82 -36 14 -4 32 -13 40 -20 21 -19 119 -42 226
-55 170 -21 382 18 542 99 42 22 86 46 97 54 18 14 23 13 56 -16 20 -18 44
-44 53 -59z"/>
</g>
</svg>
