<?xml version="1.0" standalone="no"?>
<!DOCTYPE svg PUBLIC "-//W3C//DTD SVG 20010904//EN"
 "http://www.w3.org/TR/2001/REC-SVG-20010904/DTD/svg10.dtd">
<svg version="1.0" xmlns="http://www.w3.org/2000/svg"
 width="1280.000000pt" height="1115.000000pt" viewBox="0 0 1280.000000 1115.000000"
 preserveAspectRatio="xMidYMid meet">
<metadata>
Created by potrace 1.15, written by Peter Selinger 2001-2017
</metadata>
<g transform="translate(0.000000,1115.000000) scale(0.100000,-0.100000)"
fill="#000000" stroke="none">
<path d="M380 11134 c-163 -43 -286 -155 -351 -319 l-24 -60 -3 -3515 c-3
-3905 -8 -3596 64 -3716 71 -118 176 -201 303 -238 49 -14 312 -16 2752 -16
l2698 0 7 -36 c12 -65 -3 -353 -24 -449 -39 -180 -106 -327 -198 -440 l-52
-62 -203 -7 c-278 -9 -676 -33 -959 -57 -637 -53 -1055 -127 -1232 -215 -74
-37 -78 -48 -78 -207 l0 -139 32 -31 c26 -23 28 -27 9 -17 -23 12 -24 12 -17
-26 4 -22 13 -44 19 -51 7 -6 63 -14 132 -17 l120 -7 -93 31 c-52 18 -92 33
-90 36 3 2 30 -5 62 -16 248 -85 887 -166 1646 -210 855 -48 2145 -48 3000 0
759 44 1398 125 1646 210 32 11 59 18 62 16 2 -3 -38 -18 -90 -36 l-93 -31
120 7 c69 3 125 11 132 17 6 7 15 29 19 51 7 38 6 38 -17 26 -19 -10 -17 -6 9
17 l32 31 0 139 c0 159 -4 170 -78 207 -177 88 -595 162 -1232 215 -283 24
-681 48 -959 57 l-203 7 -52 62 c-92 113 -159 260 -198 440 -21 96 -36 384
-24 449 l7 36 2698 0 c2440 0 2703 2 2752 16 127 37 232 120 303 238 72 120
67 -189 64 3716 l-3 3515 -24 60 c-32 81 -83 156 -139 206 -57 50 -167 105
-241 119 -36 7 -2017 10 -6005 9 -5186 0 -5958 -2 -6006 -15z m11605 -799 l25
-24 0 -2979 0 -2978 -28 -27 -28 -27 -5555 0 -5555 0 -27 28 -27 28 0 2978 0
2977 25 24 24 25 5561 0 5561 0 24 -25z"/>
<path d="M3388 1503 c7 -3 16 -2 19 1 4 3 -2 6 -13 5 -11 0 -14 -3 -6 -6z"/>
<path d="M9398 1503 c7 -3 16 -2 19 1 4 3 -2 6 -13 5 -11 0 -14 -3 -6 -6z"/>
</g>
</svg>
